<svg height="55" viewBox="-27 1 511 511.99823" width="55" fill="#849e2f" xmlns="http://www.w3.org/2000/svg"><path d="m133.375 85.042969-.476562.113281c-5.429688 1.273438-8.796876 6.710938-7.523438 12.140625 1.09375 4.652344 5.242188 7.792969 9.824219 7.792969.765625 0 1.539062-.089844 2.316406-.269532l.476563-.113281c5.429687-1.273437 8.796874-6.707031 7.523437-12.140625-1.273437-5.429687-6.714844-8.792968-12.140625-7.523437zm0 0"/><path d="m194.488281 51.96875c.769531 0 1.546875-.089844 2.328125-.273438l.476563-.113281c5.425781-1.277343 8.789062-6.714843 7.511719-12.144531-1.28125-5.429688-6.71875-8.792969-12.148438-7.511719l-.476562.109375c-5.429688 1.28125-8.792969 6.71875-7.511719 12.148438 1.097656 4.648437 5.242187 7.785156 9.820312 7.785156zm0 0"/><path d="m255.726562 56.941406-.476562.113282c-5.429688 1.273437-8.796875 6.707031-7.523438 12.136718 1.09375 4.65625 5.238282 7.796875 9.824219 7.796875.761719 0 1.539063-.089843 2.316407-.269531l.476562-.113281c5.429688-1.273438 8.796875-6.710938 7.523438-12.140625-1.277344-5.429688-6.714844-8.796875-12.140626-7.523438zm0 0"/><path d="m315.316406 111.320312-.476562.113282c-5.425782 1.277344-8.792969 6.710937-7.519532 12.140625 1.09375 4.652343 5.242188 7.792969 9.824219 7.792969.765625 0 1.539063-.089844 2.316407-.273438l.476562-.109375c5.429688-1.277344 8.796875-6.714844 7.523438-12.140625-1.277344-5.429688-6.714844-8.792969-12.144532-7.523438zm0 0"/><path d="m315.316406 162.28125-.476562.113281c-5.425782 1.273438-8.792969 6.710938-7.519532 12.140625 1.09375 4.652344 5.242188 7.789063 9.824219 7.789063.765625 0 1.539063-.085938 2.316407-.269531l.476562-.113282c5.429688-1.273437 8.796875-6.710937 7.523438-12.140625-1.277344-5.429687-6.714844-8.792969-12.144532-7.519531zm0 0"/><path d="m221.003906 358.890625-.476562.113281c-5.429688 1.277344-8.796875 6.710938-7.519532 12.140625 1.09375 4.652344 5.242188 7.789063 9.820313 7.789063.765625 0 1.542969-.085938 2.320313-.269532l.476562-.113281c5.429688-1.273437 8.796875-6.710937 7.519531-12.140625-1.273437-5.429687-6.714843-8.792968-12.140625-7.519531zm0 0"/><path d="m265.453125 403.429688-.476563.109374c-5.429687 1.277344-8.796874 6.710938-7.519531 12.140626 1.09375 4.652343 5.242188 7.792968 9.820313 7.792968.765625 0 1.542968-.089844 2.320312-.269531l.476563-.113281c5.429687-1.277344 8.796875-6.710938 7.519531-12.140625-1.273438-5.429688-6.714844-8.792969-12.140625-7.519531zm0 0"/><path d="m166.066406 336.144531-.476562.109375c-5.429688 1.277344-8.796875 6.710938-7.523438 12.140625 1.09375 4.65625 5.242188 7.792969 9.824219 7.792969.765625 0 1.542969-.085938 2.316406-.269531l.476563-.109375c5.429687-1.277344 8.796875-6.710938 7.523437-12.140625-1.273437-5.429688-6.714843-8.796875-12.140625-7.523438zm0 0"/><path d="m108.136719 324.152344-.476563.109375c-5.429687 1.28125-8.789062 6.722656-7.507812 12.148437 1.09375 4.652344 5.242187 7.78125 9.820312 7.78125.765625 0 1.546875-.085937 2.328125-.269531l.476563-.113281c5.425781-1.28125 8.789062-6.71875 7.507812-12.148438-1.28125-5.429687-6.71875-8.792968-12.148437-7.507812zm0 0"/><path d="m42.121094 252.511719-.464844.109375c-5.429688 1.277344-8.796875 6.710937-7.523438 12.140625 1.09375 4.652343 5.242188 7.792969 9.824219 7.792969.765625 0 1.542969-.089844 2.316407-.273438l.46875-.109375c5.429687-1.273437 8.796874-6.710937 7.519531-12.140625-1.273438-5.429688-6.714844-8.796875-12.140625-7.519531zm0 0"/><path d="m255.726562 135.035156-.476562.113282c-5.429688 1.273437-8.796875 6.707031-7.523438 12.136718 1.09375 4.65625 5.238282 7.792969 9.824219 7.792969.761719 0 1.539063-.085937 2.316407-.269531l.476562-.109375c5.429688-1.277344 8.796875-6.710938 7.523438-12.140625-1.277344-5.429688-6.714844-8.796875-12.140626-7.523438zm0 0"/><path d="m255.726562 213.125-.476562.113281c-5.429688 1.273438-8.796875 6.710938-7.523438 12.140625 1.09375 4.652344 5.238282 7.792969 9.824219 7.792969.761719 0 1.539063-.085937 2.316407-.269531l.476562-.113282c5.429688-1.273437 8.796875-6.707031 7.523438-12.140624-1.277344-5.429688-6.714844-8.792969-12.140626-7.523438zm0 0"/><path d="m192.667969 122.496094-.476563.113281c-5.433594 1.273437-8.800781 6.710937-7.527344 12.140625 1.09375 4.652344 5.242188 7.792969 9.824219 7.792969.765625 0 1.542969-.089844 2.316407-.269531l.476562-.113282c5.429688-1.273437 8.800781-6.710937 7.523438-12.140625-1.273438-5.429687-6.710938-8.796875-12.136719-7.523437zm0 0"/><path d="m192.667969 213.070312-.476563.113282c-5.433594 1.273437-8.800781 6.710937-7.527344 12.140625 1.09375 4.652343 5.242188 7.792969 9.824219 7.792969.765625 0 1.542969-.089844 2.316407-.269532l.476562-.113281c5.429688-1.273437 8.800781-6.710937 7.523438-12.140625-1.273438-5.429688-6.710938-8.792969-12.136719-7.523438zm0 0"/><path d="m133.375 144.75-.476562.109375c-5.429688 1.277344-8.796876 6.710937-7.523438 12.140625 1.09375 4.652344 5.242188 7.792969 9.824219 7.792969.765625 0 1.539062-.085938 2.316406-.269531l.476563-.113282c5.429687-1.273437 8.796874-6.707031 7.523437-12.136718-1.273437-5.429688-6.714844-8.796876-12.140625-7.523438zm0 0"/><path d="m133.375 213.125-.476562.113281c-5.429688 1.273438-8.796876 6.710938-7.523438 12.140625 1.09375 4.652344 5.242188 7.792969 9.824219 7.792969.765625 0 1.539062-.085937 2.316406-.269531l.476563-.113282c5.429687-1.273437 8.796874-6.707031 7.523437-12.140624-1.273437-5.429688-6.714844-8.792969-12.140625-7.523438zm0 0"/><path d="m398.898438 233.210938-20.398438 16.078124c-6.488281 5.113282-10.59375 12.441407-11.566406 20.644532-.550782 4.640625-.058594 9.246094 1.402344 13.546875l-14.832032 11.6875v-87.777344l35.511719-27.984375c5.085937 3.320312 11 5.039062 16.953125 5.039062 6.699219 0 13.445312-2.164062 19.105469-6.621093l20.402343-16.078125c13.386719-10.550782 15.695313-30.03125 5.144532-43.421875-5.113282-6.488281-12.445313-10.59375-20.644532-11.566407-8.203124-.972656-16.292968 1.308594-22.777343 6.417969l-20.402344 16.078125c-6.484375 5.113282-10.59375 12.445313-11.566406 20.644532-.550781 4.644531-.054688 9.25 1.402343 13.546874l-23.128906 18.230469v-66.8125c0-11.597656-5.691406-22.472656-15.21875-29.085937-11.171875-7.75-25.542968-8.144532-36.964844-2.046875v-16.039063c0-13.410156-6.375-26.261718-17.050781-34.375-13.984375-10.628906-32.808593-11.757812-47.9375-2.882812l-.171875.097656c-.6875.402344-1.363281.824219-2.023437 1.265625-1.578125-7.378906-5.246094-14.152344-10.707031-19.609375l-.613282-.617188c-15.429687-15.425781-40.53125-15.425781-55.957031 0-7.472656 7.472657-11.589844 17.410157-11.589844 27.976563v21.460937c-15.15625-8.898437-35.015625-6.847656-48.011719 6.148438-7.472656 7.472656-11.589843 17.40625-11.589843 27.976562v179.667969c-1.890625-2.636719-3.210938-6.53125-4.59375-10.601562-.253907-.757813-.511719-1.511719-.769531-2.257813-5.039063-14.507812-16.835938-48.488281-47.539063-50.988281-11.800781-.953125-23.757813 3.5625-31.976563 12.101563-7.664062 7.953124-11.320312 18.679687-10.039062 29.417968 1.046875 8.742188 4.652344 16.457032 7.945312 23 21.148438 41.988282 51.359376 72.53125 83.339844 104.871094l4.648438 4.703125c20.757812 21.019531 32.1875 48.863281 32.1875 78.402344v38.449219c0 5.578124 4.519531 10.101562 10.097656 10.101562h158.390625c5.578125 0 10.101563-4.523438 10.101563-10.101562v-48.476563c0-18.300781 7.125-35.503906 20.0625-48.441406 16.753906-16.753907 25.980468-39.027344 25.980468-62.71875v-21.378907l27.195313-21.433593c3.949219 2.589843 8.472656 4.253906 13.296875 4.828125 1.238281.148437 2.472656.21875 3.699218.21875 6.90625 0 13.570313-2.300782 19.078126-6.640625l20.398437-16.074219c6.488281-5.113281 10.59375-12.445312 11.566406-20.648438.972657-8.199218-1.308593-16.289062-6.417969-22.773437-10.550781-13.390625-30.027343-15.699219-43.421874-5.148437zm-3.609376-80.933594c.339844-2.84375 1.761719-5.382813 4.011719-7.15625l20.402344-16.078125c1.910156-1.503907 4.21875-2.300781 6.613281-2.300781.425782 0 .855469.023437 1.285156.074218 2.84375.335938 5.382813 1.761719 7.15625 4.011719 3.660157 4.644531 2.859376 11.398437-1.78125 15.054687l-20.402343 16.078126c-4.644531 3.660156-11.398438 2.859374-15.058594-1.785157-1.773437-2.25-2.5625-5.054687-2.226563-7.898437zm-61.980468 45.316406-22.40625 17.65625c-.058594.046875-.109375.101562-.167969.148438-.164063.132812-.324219.269531-.476563.414062-.105468.097656-.207031.199219-.304687.300781-.125.125-.246094.253907-.363281.386719-.113282.128906-.222656.257812-.328125.390625-.089844.117187-.179688.234375-.265625.351563-.113282.152343-.21875.308593-.320313.464843-.070312.113281-.140625.226563-.210937.34375-.097656.164063-.1875.328125-.273438.496094-.066406.125-.128906.25-.1875.378906-.074218.160157-.144531.320313-.210937.480469-.058594.148438-.113281.300781-.167969.449219-.050781.148437-.097656.296875-.144531.445312-.050781.171875-.097657.34375-.136719.519531-.035156.132813-.0625.265626-.089844.402344-.039062.1875-.070312.378906-.09375.570313-.019531.128906-.035156.257812-.050781.386719-.015625.191406-.03125.382812-.039063.574218-.003906.140625-.007812.285156-.007812.425782 0 .175781.003906.351562.011719.527343.007812.167969.023437.339844.039062.507813.015625.148437.035157.296875.054688.441406.03125.203125.066406.402344.109375.601562.015625.078126.027344.15625.042968.234376.011719.054687.03125.105468.046876.15625.039062.15625.082031.3125.128906.464843.046875.152344.09375.304688.148437.449219.046875.136719.097657.269531.152344.40625.070313.179688.148437.351562.230469.527344.050781.101562.09375.203125.144531.300781.128906.246094.265625.488281.410156.722656.019531.027344.03125.054688.050781.082031.179688.285157.375.5625.582032.824219.003906.003907.003906.003907.003906.007813.007812.003906.011719.011718.019531.015625.214844.273437.445313.527343.683594.773437.0625.066406.125.128906.191406.191406.210938.203126.425781.398438.652344.585938.050781.039062.097656.085938.148437.125.253907.199219.519532.382812.792969.558594.105469.066406.214844.128906.320313.191406.195312.113281.390625.21875.589844.320312.105468.054688.207031.109376.316406.15625.296875.136719.601562.265626.914062.375.023438.007813.042969.011719.066406.019532.304688.105468.617188.191406.933594.261718.070313.019532.148438.035157.222656.050782.28125.058594.566407.105468.851563.140625.0625.007812.121094.015625.183594.023437.34375.035156.6875.058594 1.039062.058594.023438 0 .050781-.003906.078125-.003906.320313 0 .636719-.023438.957032-.054688.089843-.007812.175781-.019531.265624-.03125.3125-.039062.621094-.09375.933594-.164062.027344-.007813.054688-.007813.082032-.015625l.097656-.023438c.023437-.003906.046875-.007812.074218-.015625l.304688-.070312c2.183594-.515625 4.019531-1.703125 5.371094-3.289063l8-6.304687v87.777344l-30.707032 24.195312c-4.378906 3.453125-5.132812 9.804688-1.679687 14.183594 1.992187 2.527344 4.949219 3.847656 7.9375 3.847656 2.1875 0 4.390625-.707031 6.242187-2.167969l18.203126-14.34375v5.460938c0 18.296875-7.125 35.5-20.0625 48.4375-16.753907 16.753906-25.980469 39.027343-25.980469 62.722656v38.378906h-138.191407v-28.351562c0-34.886719-13.5-67.769531-38.011718-92.59375l-4.660156-4.714844c-30.828126-31.171875-59.949219-60.613281-79.660157-99.753906-2.640625-5.242188-5.273437-10.820313-5.929687-16.316407-.769532-6.425781 2.507812-10.910156 4.527344-13.007812 4.0625-4.21875 9.96875-6.449219 15.792968-5.976562 15.488282 1.261718 23.90625 19.65625 30.097656 37.480468.242188.703125.480469 1.410156.722657 2.125 2.296875 6.769532 5.15625 15.195313 12.15625 21.207032 9.847656 8.460937 23.367187 8.191406 31.445312 8.027343l1.847657-.035156c22.347656-.457031 45.453124-.925781 67.140624 3.285156 50.164063 9.742188 72.425782 42.789063 71.882813 69.371094-.113281 5.574219 4.3125 10.1875 9.890625 10.300781 5.585938.128906 10.1875-4.3125 10.304688-9.886718.476562-23.328126-9.386719-44.535157-28.523438-61.324219-15.757812-13.824219-36.960938-23.871094-59.707031-28.285157-23.796875-4.625-47.996094-4.132812-71.398438-3.65625l-1.121093.023438v-184.585938c0-5.175781 2.015624-10.039062 5.675781-13.695312 7.550781-7.554688 19.839843-7.554688 27.390625 0l.613281.613281c3.660156 3.65625 5.675781 8.519531 5.675781 13.695313v127.15625c0 5.578125 4.570313 10.101562 10.148438 10.101562s10.101562-4.523437 10.101562-10.101562v-183.355469c0-5.171875 2.011719-10.035156 5.671875-13.695313 7.550781-7.550781 19.839844-7.550781 27.390625-.003906l.617188.617188c3.65625 3.660156 5.671875 8.523437 5.671875 13.695312v182.910156c0 5.578126 4.519531 10.097657 10.097656 10.097657s10.101563-4.519531 10.101563-10.097657v-155.292968c0-8.121094 4.351562-15.714844 11.335937-19.808594l.171875-.101562c8.0625-4.726563 18.082031-4.125 25.523438 1.53125 5.679687 4.316406 9.070312 11.15625 9.070312 18.292968v155.210938c0 5.578125 4.523438 10.097656 10.101562 10.097656 5.578126 0 10.097657-4.519531 10.097657-10.097656v-106.105469c0-3.5 1.21875-6.917969 3.4375-9.625l1.578125-1.933594c4.988281-6.097656 13.964844-7.355469 20.433594-2.863281 4.09375 2.839844 6.535156 7.507812 6.535156 12.488281zm91.367187 68.324219-20.402343 16.074219c-2.25 1.773437-5.054688 2.5625-7.898438 2.226562s-5.382812-1.757812-7.15625-4.007812c-3.660156-4.644532-2.859375-11.398438 1.78125-15.058594l20.402344-16.078125c4.644531-3.660157 11.398437-2.859375 15.054687 1.785156 3.660157 4.644531 2.859375 11.398437-1.78125 15.058594zm0 0"/></svg>