<svg id="Capa_1" enable-background="new 0 0 512 512" height="40" viewBox="0 0 512 512" width="40" fill="#849e2f" xmlns="http://www.w3.org/2000/svg"><g><g><path d="m504.892 193.052c-17.638-13.48-42.413-11.988-58.303 3.284v-138.019c0-16.613-13.274-30.471-29.589-30.891-5.785-.146-11.339 1.301-16.183 4.157v-1.197c0-8.265-3.26-15.993-9.18-21.762-5.918-5.768-13.736-8.827-22.004-8.613-12.355.318-22.966 8.342-27.389 19.434-5.325-3.797-11.713-5.757-18.383-5.586-16.315.42-29.589 14.277-29.589 30.891v9.734c0 4.142 3.358 7.5 7.5 7.5s7.5-3.358 7.5-7.5v-9.734c0-8.552 6.718-15.683 14.975-15.896 4.193-.107 8.152 1.441 11.148 4.361 2.998 2.921 4.648 6.835 4.648 11.02v139.439c0 4.142 3.358 7.5 7.5 7.5s7.5-3.358 7.5-7.5v-152.773c0-8.552 6.718-15.683 14.975-15.896 4.198-.107 8.152 1.441 11.148 4.36 2.998 2.921 4.649 6.835 4.649 11.02v153.288c0 4.142 3.358 7.5 7.5 7.5s7.5-3.358 7.5-7.5v-125.872c0-4.185 1.651-8.098 4.648-11.02 2.997-2.92 6.966-4.461 11.148-4.361 8.257.212 14.975 7.343 14.975 15.896v151.13c-10.631 4.099-33.565 15.565-44.074 41.007-1.582 3.828.24 8.214 4.068 9.795.937.387 1.906.57 2.86.57 2.945 0 5.74-1.747 6.935-4.639 4.331-10.485 12.161-19.085 21.522-25.353 5.37-3.596 11.284-6.61 17.459-8.565 1.444-.457 2.973-1.088 4.045-2.165.023-.023.049-.04.071-.063l11.74-12.118c10.531-10.871 27.542-12.138 39.568-2.946.907.693 1.093 1.962.422 2.889l-2.833 3.919c-12.313 17.042-25.045 34.664-39.348 50.26-11.187 12.198-24.815 22.14-35.439 29.438-4.833 3.321-10.334 7.344-14.435 13.088-4.725 6.618-7.328 14.703-7.328 22.766v169.671h-87.555v-169.761c5.703-.224 11.309-1.553 16.025-4.34 9.633-5.694 13.865-17.342 10.53-28.985-2.936-10.248-9.755-18.981-18.91-24.39 10.16-6.367 20.087-19.979 19.951-33.318-.115-11.189-8.086-20.678-19.836-23.612-10.343-2.581-21.316-1.043-30.578 4.181-.435-11.982-7.259-27.385-18.879-33.937-1.317-.742-2.68-1.333-4.071-1.799v-62.043c0-8.552 6.718-15.683 14.975-15.896 4.195-.102 8.152 1.44 11.149 4.361 2.888 2.815 4.51 6.553 4.626 10.565v65.649c0 4.142 3.358 7.5 7.5 7.5s7.5-3.358 7.5-7.5l.022-94.274c0-4.142-3.358-7.5-7.5-7.5s-7.5 3.358-7.5 7.5v2.861c-4.844-2.856-10.408-4.303-16.184-4.157-8.775.226-16.666 4.343-22.089 10.681-5.423-6.338-13.314-10.455-22.089-10.681-5.78-.142-11.34 1.301-16.183 4.157v-47.513c0-16.613-13.273-30.471-29.589-30.891-6.675-.171-13.058 1.789-18.383 5.586-4.418-11.091-15.028-19.115-27.384-19.434-8.278-.213-16.085 2.846-22.004 8.613-5.919 5.769-9.18 13.498-9.18 21.762v1.197c-4.844-2.856-10.404-4.309-16.183-4.157-16.315.42-29.589 14.277-29.589 30.891v138.02c-15.89-15.273-40.665-16.765-58.303-3.284-7.417 5.669-8.94 16.035-3.466 23.6 0 0 28.384 39.283 43.278 55.525 12.208 13.313 26.721 23.915 38 31.664 3.779 2.596 8.036 5.681 10.721 9.441 2.882 4.037 4.535 9.157 4.535 14.049v177.169c0 4.142 3.358 7.5 7.5 7.5h102.555c4.142 0 7.5-3.358 7.5-7.5v-93.433c0-4.142-3.358-7.5-7.5-7.5s-7.5 3.358-7.5 7.5v85.933h-87.555v-169.669c0-8.063-2.603-16.147-7.327-22.765-4.102-5.745-9.602-9.769-14.435-13.089-10.624-7.299-24.253-17.241-35.439-29.438-14.303-15.597-27.035-33.219-39.348-50.261l-2.833-3.919c-.67-.927-.485-2.196.422-2.889 12.027-9.19 29.037-7.925 39.568 2.946 0 0 11.693 12.069 11.741 12.119 2.155 2.224 6.398 2.94 9.254 4.147 4.445 1.88 8.715 4.195 12.708 6.906 9.19 6.242 16.866 14.755 21.135 25.092 1.194 2.892 3.989 4.639 6.935 4.639.954 0 1.924-.183 2.86-.57 3.829-1.581 5.65-5.967 4.068-9.795-10.509-25.441-33.443-36.907-44.074-41.007v-151.13c0-8.552 6.718-15.683 14.975-15.896 4.194-.105 8.153 1.441 11.148 4.361 2.998 2.921 4.648 6.835 4.648 11.02v125.872c0 4.142 3.358 7.5 7.5 7.5s7.5-3.358 7.5-7.5v-153.288c0-4.185 1.651-8.099 4.649-11.02 2.996-2.92 6.974-4.466 11.148-4.36 8.257.213 14.975 7.343 14.975 15.896v152.772c0 4.142 3.358 7.5 7.5 7.5s7.5-3.358 7.5-7.5c0 0 0-139.436 0-139.439 0-4.185 1.651-8.098 4.648-11.02 2.996-2.92 6.934-4.473 11.148-4.361 8.257.212 14.975 7.343 14.975 15.896l.022 138.924c0 4.142 3.358 7.5 7.5 7.5s7.5-3.358 7.5-7.5v-65.649c.116-4.012 1.738-7.75 4.626-10.565 2.997-2.92 6.957-4.465 11.148-4.361 8.258.213 14.976 7.344 14.976 15.896v62.067c-4.096 1.333-7.99 3.726-11.295 7.148-7.407 7.666-11.561 17.938-11.668 28.571-10.594-5.615-27.346-7.406-38.83-.619-9.633 5.694-13.865 17.342-10.53 28.985 2.936 10.248 9.755 18.982 18.91 24.39-10.16 6.367-20.087 19.979-19.951 33.318.115 11.19 8.086 20.679 19.836 23.612 2.56.639 5.158 1.019 7.76 1.161v49.438c0 4.142 3.358 7.5 7.5 7.5s7.5-3.358 7.5-7.5v-51.369c2.699-.862 5.322-1.989 7.818-3.396.44 11.98 7.264 27.373 18.879 33.922 3.595 2.027 7.523 3.012 11.473 3.012 6.76 0 13.582-2.888 18.894-8.385 7.407-7.666 11.561-17.939 11.668-28.572 2.34 1.24 4.988 2.282 7.805 3.099v179.123c0 4.142 3.358 7.5 7.5 7.5h102.555c4.142 0 7.5-3.358 7.5-7.5v-177.169c0-4.892 1.653-10.012 4.536-14.05 2.684-3.759 6.941-6.844 10.721-9.44 11.279-7.749 25.792-18.351 38-31.664 14.894-16.241 27.886-34.223 40.451-51.614l2.827-3.911c5.476-7.565 3.953-17.931-3.464-23.6zm-285.016 115.145c-6.263 4.173-14.018 5.528-21.271 3.717-4.18-1.043-8.419-4.296-8.47-9.212-.081-7.952 7.646-17.96 14.348-21.265 7.541-3.718 15.542-4.475 21.63-4.315 1.417 5.577 4.36 10.548 8.354 14.451-2.918 5.375-7.591 11.96-14.591 16.624zm6.244-46.293c-6.109.158-14.138-.6-21.668-4.325-6.746-3.337-11.796-9.374-13.855-16.562-1.186-4.142-.489-9.44 3.743-11.942 6.845-4.046 19.377-2.359 25.589 1.792 7.001 4.679 11.658 11.24 14.562 16.596-3.998 3.899-6.948 8.866-8.371 14.441zm21.872-63.271c2.994-3.098 7.93-5.144 12.213-2.729 6.927 3.905 11.731 15.602 11.243 23.058-.55 8.39-3.898 15.7-7.083 20.895-2.662-.752-5.466-1.162-8.365-1.162-2.891 0-5.687.409-8.342 1.156-3.191-5.207-6.542-12.532-7.083-20.937-.482-7.512 2.221-14.904 7.417-20.281zm16.016 141.795c-2.994 3.098-7.932 5.143-12.213 2.729-6.927-3.905-11.731-15.602-11.243-23.058.55-8.392 3.898-15.701 7.083-20.895 2.662.752 5.465 1.162 8.365 1.162 2.891 0 5.687-.409 8.342-1.156 3.191 5.206 6.542 12.53 7.083 20.937.482 7.512-2.221 14.904-7.417 20.281zm-8.008-55.061c-8.732 0-15.836-7.104-15.836-15.837s7.104-15.836 15.836-15.836 15.836 7.104 15.836 15.836-7.104 15.837-15.836 15.837zm36.124-54.504c6.263-4.173 14.018-5.529 21.271-3.717 4.18 1.043 8.42 4.296 8.471 9.212.081 7.952-7.646 17.96-14.348 21.265-7.542 3.72-15.543 4.477-21.63 4.316-1.417-5.577-4.361-10.549-8.355-14.452 2.917-5.374 7.592-11.96 14.591-16.624zm-.053 77.33c-7-4.678-11.657-11.239-14.562-16.596 3.998-3.898 6.948-8.866 8.371-14.44 6.109-.158 14.139.601 21.668 4.324 6.746 3.338 11.796 9.375 13.855 16.563 1.186 4.142.489 9.44-3.743 11.942-6.844 4.046-19.376 2.359-25.589-1.793z"/></g></g></svg>