<svg id="Layer_3" enable-background="new 0 0 64 64" fill="#849e2f" height="55" viewBox="0 0 64 64" width="55" xmlns="http://www.w3.org/2000/svg"><g><path d="m63 26c0-2.757-2.243-5-5-5h-4.944c.78-1.69 1.799-3.237 3.035-4.627.712.448 1.531.698 2.391.698 1.207 0 2.343-.472 3.196-1.33 1.759-1.768 1.759-4.644 0-6.411l-6.965-7c-.853-.857-1.988-1.33-3.195-1.33s-2.343.473-3.196 1.33c-1.503 1.51-1.71 3.824-.645 5.57-1.756 1.573-3.753 2.81-5.973 3.643-2.824 1.059-5.338 2.677-7.472 4.811l-4.646 4.646h-2.69c3.66-2.302 6.104-6.366 6.104-11 0-.552-.447-1-1-1h-5v-7c0-.552-.447-1-1-1-4.622 0-8.678 2.432-10.984 6.077-3.215-3.828-7.972-6.077-13.016-6.077-.553 0-1 .448-1 1v4c0 6.389 3.558 12.1 9.002 15h-4.002c-2.757 0-5 2.243-5 5 0 2.045 1.237 3.802 3 4.576v.424c0 10.052 5.438 19.385 14.19 24.355.287.163.503.446.577.759.042.177.058.44-.109.692-.485.733-.709 1.588-.649 2.473.144 2.087 1.968 3.721 4.152 3.721h19.678c2.185 0 4.008-1.634 4.152-3.721.06-.885-.164-1.739-.649-2.473-.167-.252-.151-.516-.109-.692.074-.312.29-.596.576-.759 8.753-4.97 14.191-14.303 14.191-24.355v-.424c1.763-.774 3-2.531 3-4.576zm-8.403-10.952c-.656.738-1.264 1.51-1.806 2.328l-6.145-6.145c.822-.546 1.598-1.16 2.34-1.823zm-4.858-11.307c.476-.478 1.108-.741 1.779-.741s1.303.263 1.778.741l6.965 7c.985.989.985 2.599 0 3.589-.951.955-2.605.955-3.557 0l-6.965-7c-.985-.99-.985-2.6 0-3.589zm-14.093 14.028c1.931-1.93 4.205-3.395 6.76-4.352.854-.32 1.669-.71 2.465-1.132l6.87 6.87c-.315.596-.599 1.213-.86 1.846h-18.467zm-14.673 3.184c3.352-2.141 5.656-5.77 5.977-9.953h4.006c-.479 5.278-4.702 9.488-9.983 9.953zm4.027-17.908v6.955c0 5.302-3.773 9.733-8.774 10.766l1.828-2.351c2.545-3.271 4.25-7.162 4.932-11.251l-1.973-.329c-.627 3.763-2.196 7.342-4.537 10.352l-1.476 1.899v-5.086c0-5.729 4.401-10.448 10-10.955zm-22 2.955v-2.967c4.353.291 8.365 2.485 10.994 5.992-.534 1.284-.856 2.674-.951 4.126-2.425-1.781-4.401-4.104-5.756-6.814l-.392-.784-1.79.894.393.785c1.704 3.409 4.297 6.265 7.502 8.31v4.604c-5.948-2.095-10-7.737-10-14.146zm41.819 47.617c-.77.438-1.328 1.18-1.532 2.032-.189.794-.053 1.597.387 2.261.24.364.352.79.321 1.232-.07 1.025-1.038 1.858-2.156 1.858h-19.678c-1.118 0-2.086-.833-2.156-1.857-.03-.442.081-.868.321-1.232.439-.664.576-1.467.387-2.261-.204-.853-.763-1.594-1.533-2.032-8.13-4.618-13.18-13.284-13.18-22.618h52c0 9.334-5.05 18-13.181 22.617zm13.181-24.617h-52c-1.654 0-3-1.346-3-3s1.346-3 3-3h8 6 38c1.654 0 3 1.346 3 3s-1.346 3-3 3z"/><path d="m55.639 35.173-1.971-.346c-1.216 6.937-5.741 12.914-12.104 15.99l.871 1.801c6.94-3.355 11.876-9.877 13.204-17.445z"/><path d="m8 33h24v2h-24z"/><path d="m34 33h2v2h-2z"/></g></svg>