<?xml version="1.0" encoding="iso-8859-1"?>
<!-- Generator: Adobe Illustrator 19.0.0, SVG Export Plug-In . SVG Version: 6.00 Build 0)  -->
<svg version="1.1" id="Layer_1" width="20" height="20" fill="#fff" xmlns="http://www.w3.org/2000/svg" xmlns:xlink="http://www.w3.org/1999/xlink" x="0px" y="0px"
	 viewBox="0 0 512 512" style="enable-background:new 0 0 512 512;" xml:space="preserve">
<g transform="translate(1 1)">
	<g>
		<g>
			<path d="M255,299.138c-34.428,0-61.793,27.365-61.793,61.793s27.365,61.793,61.793,61.793c34.428,0,61.793-27.365,61.793-61.793
				C316.793,326.503,289.428,299.138,255,299.138z M255,405.069c-24.717,0-44.138-19.421-44.138-44.138s19.421-44.138,44.138-44.138
				s44.138,19.421,44.138,44.138S279.717,405.069,255,405.069z"/>
			<path d="M352.103,193.207c-34.428,0-61.793,27.366-61.793,61.793c0,34.428,27.365,61.793,61.793,61.793
				s61.793-27.365,61.793-61.793C413.897,220.572,386.531,193.207,352.103,193.207z M352.103,299.138
				c-24.717,0-44.138-19.421-44.138-44.138s19.421-44.138,44.138-44.138s44.138,19.421,44.138,44.138
				S376.821,299.138,352.103,299.138z"/>
			<path d="M449.207,87.276c-34.428,0-61.793,27.365-61.793,61.793c0,34.428,27.365,61.793,61.793,61.793S511,183.497,511,149.069
				C511,114.641,483.635,87.276,449.207,87.276z M449.207,193.207c-24.717,0-44.138-19.421-44.138-44.138
				s19.421-44.138,44.138-44.138s44.138,19.421,44.138,44.138S473.924,193.207,449.207,193.207z"/>
			<path d="M219.69,255c0-34.428-27.365-61.793-61.793-61.793c-34.428,0-61.793,27.366-61.793,61.793
				c0,34.428,27.366,61.793,61.793,61.793C192.324,316.793,219.69,289.428,219.69,255z M157.897,299.138
				c-24.717,0-44.138-19.421-44.138-44.138s19.421-44.138,44.138-44.138s44.138,19.421,44.138,44.138
				S182.614,299.138,157.897,299.138z"/>
			<path d="M122.586,149.069c0-34.428-27.365-61.793-61.793-61.793C26.366,87.276-1,114.641-1,149.069
				c0,34.428,27.366,61.793,61.793,61.793C95.221,210.862,122.586,183.497,122.586,149.069z M60.793,193.207
				c-24.717,0-44.138-19.421-44.138-44.138s19.421-44.138,44.138-44.138c24.717,0,44.138,19.421,44.138,44.138
				S85.51,193.207,60.793,193.207z"/>
		</g>
	</g>
</g>
<g>
</g>
<g>
</g>
<g>
</g>
<g>
</g>
<g>
</g>
<g>
</g>
<g>
</g>
<g>
</g>
<g>
</g>
<g>
</g>
<g>
</g>
<g>
</g>
<g>
</g>
<g>
</g>
<g>
</g>
</svg>
