<svg id="Capa_1" enable-background="new 0 0 512 512" height="40" viewBox="0 0 512 512" width="40" fill="#849e2f" xmlns="http://www.w3.org/2000/svg"><g><path d="m393.678 340.132c-2.361-3.418-7.045-4.275-10.464-1.916-3.418 2.36-4.276 7.046-1.916 10.464 15.414 22.323 23.562 48.52 23.562 75.758v26.799h-56.814v-35.446c0-4.154-3.367-7.522-7.522-7.522s-7.522 3.367-7.522 7.522v42.967 38.199h-138.18l49.989-88.809c3.454.785 7.179 1.246 11.188 1.246 22.564 0 36.327-14.39 41.57-21.187 21.075-2.29 29.392-22.021 29.756-22.911.37-.904.56-1.872.56-2.848 0-22.671-1.226-42.91-3.661-60.629 13.618 5.86 26.091 13.917 37.19 24.065 3.057 2.797 7.817 2.596 10.626-.476 2.803-3.066 2.591-7.823-.476-10.626-14.723-13.463-31.618-23.63-50.269-30.273-.183-.898-.372-1.783-.563-2.664 16.269-13.331 27.951-31.363 33.643-51.308 3.42 1.023 6.986 1.557 10.603 1.557 20.423 0 37.038-16.615 37.038-37.038 0-7.992-2.552-15.394-6.873-21.452 18.549-46.048 18.634-90.844.092-123.482-11.408-20.079-28.874-33.072-47.919-35.646-20.013-2.703-35.653 1.786-43.9 5.106-2.14-2.489-5.204-5.384-9.49-8.163-12.729-8.255-30.404-12.067-52.53-11.329-24.272.809-42.844 13.585-54.703 23.124-3.236 2.603-3.749 7.339-1.146 10.575s7.338 3.75 10.575 1.146c16.177-13.014 30.723-19.308 45.775-19.81 41.443-1.37 51.352 15.673 52.027 16.941 1.505 4.239 6.965 5.938 10.725 3.509.163-.095 16.596-9.44 40.652-6.192 14.353 1.939 27.785 12.206 36.854 28.169 7.533 13.26 22.001 49.188 1.041 105.274-5.384-3.055-11.598-4.81-18.218-4.81-2.245 0-4.481.213-6.678.616v-1.232c0-10.459-4.337-20.458-11.897-27.433-17.169-15.839-36.606-43.759-44.166-55.028-4.23-6.677-14.49-7.401-19.668-1.443-38.979 42.571-90.378 56.385-110.668 60.348-10.546 2.062-18.201 11.367-18.201 22.126v2.66c-2.198-.403-4.433-.616-6.678-.616-4.043 0-7.933.66-11.578 1.863-6.77-11.059-21.973-39.828-23.591-77.37 6.809.696 16.368.907 25.437-1.539 13.139-3.542 25.289-15.125 37.039-26.327 3.007-2.867 3.12-7.627.254-10.634-2.866-3.006-7.627-3.119-10.634-.255-10.388 9.903-21.13 20.144-30.575 22.691-12.496 3.37-27.287-.024-27.423-.055-4.513-1.195-9.312 2.535-9.263 7.206-.669 45.49 17.283 80.139 25.697 93.831-7.603 6.788-12.401 16.654-12.401 27.624 0 20.423 16.616 37.038 37.039 37.038 3.617 0 7.182-.535 10.603-1.557 5.691 19.946 17.373 37.978 33.642 51.309-.191.885-.381 1.774-.565 2.676-27.851 9.923-51.84 27.71-69.568 51.681-18.996 25.686-29.037 56.198-29.037 88.236v80.041c0 4.155 3.368 7.522 7.522 7.522h312.765c4.155 0 7.522-3.367 7.522-7.522v-80.041c-.003-30.3-9.072-59.453-26.229-84.3zm-93.549 32.126-7.07-63.657c-.458-4.128-4.178-7.101-8.306-6.645-4.128.458-7.103 4.177-6.645 8.306l7.628 68.68c-3.44 4.54-13.383 15.408-29.736 15.408-16.371 0-26.318-10.893-29.737-15.406l7.629-68.682c.459-4.129-2.516-7.848-6.645-8.306-4.131-.452-7.848 2.517-8.306 6.645l-7.071 63.657c-7.313-2.563-11.322-8.879-12.71-11.505.132-48.455 5.961-84.665 17.329-107.648 9.517-19.24 22.441-28.593 39.511-28.593s29.993 9.353 39.511 28.593c11.368 22.981 17.196 59.192 17.329 107.642-1.408 2.661-5.418 8.954-12.711 11.511zm64.849-199.198c12.128 0 21.995 9.867 21.995 21.995s-9.867 21.995-21.995 21.995c-2.59 0-5.137-.456-7.538-1.333.562-4.312.859-8.675.859-13.068v-28.549c2.15-.683 4.406-1.04 6.679-1.04zm-217.956 43.99c-12.128 0-21.995-9.867-21.995-21.995s9.867-21.995 21.995-21.995c2.273 0 4.529.357 6.678 1.04v28.548c0 4.393.297 8.756.859 13.068-2.401.878-4.948 1.334-7.537 1.334zm21.721-14.402v-46.676c0-3.582 2.542-6.678 6.043-7.362 21.384-4.177 75.025-18.587 116.737-62.655 8.836 12.993 27.586 39.301 44.678 55.07 4.484 4.136 7.055 10.104 7.055 16.376v45.247c0 23.744-9.85 46.519-26.776 62.863-2.185-7.035-4.68-13.401-7.487-19.076-8.341-16.863-24.307-36.966-52.994-36.966-28.688 0-44.653 20.103-52.995 36.966-2.807 5.674-5.301 12.04-7.487 19.075-16.924-16.343-26.774-39.118-26.774-62.862zm-35.515 142.498c14.217-19.224 32.913-34.014 54.546-43.319-1.31 9.534-2.266 19.805-2.873 30.785l-35.762 65.663c-1.987 3.648-.64 8.216 3.008 10.203 1.143.622 2.376.917 3.591.917 2.665 0 5.248-1.42 6.612-3.925l22.149-40.668c.055.166.108.333.175.495.364.889 8.681 20.621 29.756 22.911 2.863 3.712 8.275 9.687 16.268 14.348l-53.137 94.402h-65.037l35.471-65.129c1.987-3.648.64-8.216-3.008-10.203-3.649-1.986-8.217-.639-10.203 3.009l-27.644 50.758v-50.954c-.001-28.796 9.02-56.215 26.088-79.293zm271.633 151.811h-56.814v-30.677h56.814z"/><path d="m207.12 197.176 19.386-10.912c2.41-1.357 3.881-3.926 3.831-6.692-.05-2.765-1.614-5.28-4.072-6.547l-19.386-10.001c-3.69-1.905-8.228-.455-10.133 3.236s-.456 8.229 3.236 10.133l6.988 3.605-7.229 4.069c-3.62 2.038-4.903 6.624-2.865 10.244 1.381 2.453 3.933 3.833 6.561 3.833 1.25 0 2.516-.311 3.683-.968z"/><path d="m285.494 186.264 19.386 10.912c1.167.656 2.433.968 3.683.968 2.628 0 5.18-1.38 6.562-3.833 2.037-3.62.754-8.206-2.866-10.244l-7.229-4.069 6.988-3.605c3.692-1.905 5.141-6.441 3.236-10.133-1.906-3.693-6.443-5.139-10.133-3.236l-19.386 10.001c-2.458 1.268-4.021 3.782-4.072 6.547-.051 2.766 1.42 5.335 3.831 6.692z"/><path d="m141.549 297.702c6.118-6.117 9.648-15.183 10.209-26.219.399-7.836-.834-14.11-.886-14.373-.595-2.977-2.923-5.305-5.9-5.901-.263-.052-6.535-1.286-14.374-.886-11.035.56-20.102 4.091-26.219 10.208-4.964 4.965-7.698 11.565-7.698 18.586s2.734 13.621 7.698 18.586c4.964 4.964 11.565 7.698 18.585 7.698 7.02-.001 13.621-2.736 18.585-7.699zm-29.826-18.586c0-3.003 1.169-5.825 3.292-7.949 4.683-4.682 12.59-5.891 18.933-5.891.969 0 1.901.028 2.779.076.364 6.633-.417 16.313-5.816 21.711-4.383 4.384-11.514 4.384-15.896 0-2.123-2.121-3.292-4.944-3.292-7.947z"/><path d="m381.402 250.322c-7.832-.404-14.111.833-14.373.886-2.978.595-5.305 2.923-5.901 5.901-.053.263-1.285 6.538-.886 14.373.561 11.036 4.092 20.102 10.209 26.219 4.964 4.964 11.564 7.698 18.586 7.698s13.621-2.734 18.586-7.698c4.964-4.964 7.698-11.564 7.698-18.586 0-7.021-2.734-13.621-7.698-18.586-6.12-6.116-15.186-9.646-26.221-10.207zm15.582 36.742c-4.382 4.384-11.513 4.384-15.896 0-5.398-5.397-6.18-15.078-5.816-21.711 6.637-.361 16.315.417 21.712 5.815 4.382 4.382 4.382 11.514 0 15.896z"/></g></svg>