<svg id="Capa_1" enable-background="new 0 0 512 512" height="40" viewBox="0 0 512 512" width="40" fill="#849e2f" xmlns="http://www.w3.org/2000/svg"><g><path d="m181 0v76.822c0 35.193-11.772 69.803-34.045 100.089-17.398 23.662-22.265 43.476-14.466 58.892 9.78 19.329 33.278 20.197 33.511 20.197 40.059 0 81.146-12.905 85.262-14.24 28.146-9.313 54.496-12.151 73.735-14.227 24.925-2.689 41.392-4.466 47.701-18.801 5.896-13.396-3.948-26.782-7.654-31.822-22.272-30.284-34.044-64.894-34.044-100.088v-76.822zm159.875 194.684c.138.188.271.37.399.548-5.4.953-12.96 1.769-19.496 2.474-20.579 2.22-48.762 5.26-79.939 15.577l-.113.037c-1.606.518-39.36 12.497-74.912 12.678-2.485-.386-6.741-1.866-7.614-3.859-1.146-2.616.076-11.343 11.923-27.454 26.088-35.474 39.877-76.23 39.877-117.863v-46.822h90v46.822c0 41.633 13.789 82.389 39.875 117.862z"/><path d="m331 512v-76.822c0-35.193 11.772-69.803 34.045-100.089 17.398-23.662 22.265-43.476 14.466-58.892-9.78-19.329-33.278-20.197-33.511-20.197-40.059 0-81.146 12.905-85.262 14.24-28.146 9.313-54.496 12.151-73.735 14.227-24.925 2.689-41.392 4.466-47.701 18.801-5.896 13.396 3.948 26.782 7.654 31.822 22.272 30.284 34.044 64.894 34.044 100.088v76.822zm-159.875-194.684c-.138-.188-.271-.37-.399-.548 5.4-.953 12.96-1.769 19.496-2.474 20.579-2.22 48.762-5.26 79.939-15.577l.113-.037c1.606-.518 39.36-12.497 74.912-12.678 2.485.386 6.741 1.866 7.614 3.859 1.146 2.616-.076 11.343-11.923 27.454-26.088 35.474-39.877 76.23-39.877 117.863v46.822h-90v-46.822c0-41.633-13.789-82.389-39.875-117.862z"/><path d="m97.604 142.24c-23.946 33.29-36.604 72.627-36.604 113.76s12.658 80.47 36.604 113.76l24.354-17.519c-20.253-28.154-30.958-61.434-30.958-96.241s10.705-68.087 30.958-96.24z"/><path d="m414.396 369.76c23.946-33.29 36.604-72.627 36.604-113.76s-12.658-80.47-36.604-113.76l-24.354 17.519c20.253 28.154 30.958 61.434 30.958 96.241s-10.705 68.087-30.958 96.24z"/></g></svg>