<?xml version="1.0" encoding="iso-8859-1"?>
<!-- Generator: Adobe Illustrator 19.0.0, SVG Export Plug-In . SVG Version: 6.00 Build 0)  -->
<svg version="1.1" width="40" height="40" fill="#849e2f" id="Capa_1" xmlns="http://www.w3.org/2000/svg" xmlns:xlink="http://www.w3.org/1999/xlink" x="0px" y="0px"
	 viewBox="0 0 480 480" style="enable-background:new 0 0 480 480;" xml:space="preserve">
<g>
	<g>
		<path d="M304,246.983c-3.361,0.002-6.362,2.105-7.512,5.264L248,385.575V86.983c0.01-2.879-1.528-5.542-4.028-6.972
			c-3.835-2.194-8.723-0.863-10.916,2.972l-93.696,164H0v16h144c2.864,0.006,5.512-1.52,6.944-4L232,117.111v313.872
			c-0.002,3.88,2.78,7.201,6.6,7.88c0.462,0.079,0.931,0.119,1.4,0.12c3.361-0.002,6.362-2.106,7.512-5.264L309.6,262.983H480v-16
			H304z"/>
	</g>
</g>
<g>
	<g>
		<path d="M446.508,62.998C427.705,38.443,392.556,33.78,368,52.583c-22.339-17.134-53.927-15.019-73.783,4.94
			c-21.812,21.926-21.72,57.383,0.207,79.196l67.92,67.92c1.5,1.5,3.534,2.344,5.656,2.344c2.135-0.003,4.179-0.858,5.68-2.376
			l67.92-67.92C461.496,116.836,463.595,85.313,446.508,62.998z M430.264,125.383L368,187.671l-62.264-62.288
			c-7.526-7.519-11.739-17.731-11.705-28.369c0.071-22.047,18.001-39.862,40.049-39.791c10.597-0.055,20.775,4.134,28.264,11.632
			c3.124,3.123,8.188,3.123,11.312,0c15.582-15.469,40.72-15.487,56.324-0.04C445.679,84.357,445.806,109.684,430.264,125.383z"/>
	</g>
</g>
<g>
</g>
<g>
</g>
<g>
</g>
<g>
</g>
<g>
</g>
<g>
</g>
<g>
</g>
<g>
</g>
<g>
</g>
<g>
</g>
<g>
</g>
<g>
</g>
<g>
</g>
<g>
</g>
<g>
</g>
</svg>
